<svg width="727.196" height="388" viewBox="0 0 727.196 388" fill="none" xmlns="http://www.w3.org/2000/svg">
<g id="Group 10">
<path id="Subtract" d="M115.654 179.292V179.31C114.116 180.923 112.036 181.842 109.859 181.842H8.20917C0.907682 181.842 -2.74267 172.49 2.41425 167.025L160.023 0H284.839L115.654 179.292ZM724.781 167.025C729.938 172.49 726.288 181.842 718.987 181.842H617.337C615.16 181.842 613.08 180.94 611.541 179.31L544.845 108.628C535.464 98.6867 520.238 98.6867 510.858 108.628L444.161 179.31C442.622 180.923 440.543 181.842 438.365 181.842H336.716C329.414 181.842 325.764 172.49 330.921 167.025L448.434 42.4922C457.815 32.551 457.815 16.4158 448.434 6.47461L442.324 0H567.172L724.781 167.025Z" fill="#3E7E7B" fill-opacity="0.1"/>
<path id="Subtract_2" d="M109.859 215.24C112.036 215.24 114.116 216.143 115.654 217.774L276.261 388H151.453L2.41425 230.057C-2.74263 224.592 0.907807 215.241 8.20917 215.24H109.859ZM438.35 215.24C440.527 215.24 442.606 216.143 444.145 217.774L510.842 288.455C520.223 298.396 535.448 298.396 544.828 288.455L611.526 217.774H611.492C613.031 216.16 615.11 215.24 617.287 215.24H718.938C726.239 215.241 729.889 224.592 724.733 230.057L575.694 388H450.567C457.732 378.02 457.017 363.704 448.418 354.591L330.904 230.057C325.748 224.592 329.399 215.24 336.7 215.24H438.35Z" fill="#3E7E7B" fill-opacity="0.1"/>
</g>
</svg>
