<svg viewBox="0 0 35 28" xmlns="http://www.w3.org/2000/svg">
  <path d="M14.4922 0.875C13.5078 0.875 12.7422 1.64062 12.7422 2.625V3.5H21.4922V2.625C21.4922 1.64062 20.7266 0.875 19.7422 0.875H14.4922ZM11.8672 3.5V2.625C11.8672 1.20312 13.0703 0 14.4922 0H19.7422C21.2188 0 22.3672 1.20312 22.3672 2.625V3.5H23.6797C25.8672 3.5 27.6172 5.25 27.6172 7.4375V13.8359L28.8203 14.2734C29.5859 14.6016 30.0234 15.5312 29.75 16.3516C29.0391 18.4844 27.8359 20.3438 26.25 21.7656C25.9219 21.6562 25.5938 21.6016 25.2656 21.5469C26.9062 20.125 28.2188 18.2656 28.9297 16.0781C29.0391 15.6953 28.875 15.2578 28.4922 15.0938L18.1016 10.9375C17.9375 10.8828 17.7188 10.8281 17.5547 10.8281V24.0078C17.4453 24.0078 17.3359 24.0625 17.2812 24.0625H17.1172C17.0078 24.0625 16.8438 24.0625 16.6797 24.0078V10.8281C16.5156 10.8281 16.2969 10.8828 16.1328 10.9375L5.74219 15.0938C5.35938 15.2578 5.19531 15.6953 5.30469 16.0781C6.07031 18.2656 7.32812 20.125 9.02344 21.5469C8.64062 21.6016 8.3125 21.7109 7.98438 21.7656C6.39844 20.3438 5.19531 18.4844 4.48438 16.3516C4.21094 15.5312 4.64844 14.6016 5.41406 14.2734L6.61719 13.8359V7.4375C6.61719 5.25 8.36719 3.5 10.5547 3.5H11.8672ZM26.7422 7.4375C26.7422 5.74219 25.375 4.375 23.6797 4.375H10.5547C8.85938 4.375 7.49219 5.74219 7.49219 7.4375V13.4531L15.8047 10.1719C16.6797 9.78906 17.6094 9.78906 18.4297 10.1719L26.7422 13.4531V7.4375ZM21.3281 25.3203C19.9609 26.3594 18.5391 27.125 17.1172 27.125C15.6953 27.125 14.2734 26.3594 12.9062 25.3203C11.3203 24.2266 9.1875 24.2266 7.60156 25.3203C6.28906 26.3047 4.75781 27.125 3.11719 27.0703C2.13281 27.0703 1.20312 26.7969 0.21875 26.1406C0.0546875 25.9766 0 25.7031 0.164062 25.4844C0.273438 25.3203 0.546875 25.2656 0.765625 25.4297C1.53125 25.9766 2.35156 26.1953 3.11719 26.1953C4.48438 26.1953 5.79688 25.5391 7.10938 24.6094C8.96875 23.2969 11.5391 23.2969 13.3984 24.6094C14.7656 25.5938 15.9688 26.25 17.1172 26.25C18.2656 26.25 19.4688 25.5938 20.8359 24.6094C22.75 23.2969 25.2656 23.2969 27.125 24.6094C28.1641 25.375 29.2031 25.9219 30.2969 26.1406C31.3359 26.3594 32.4297 26.1953 33.5234 25.4297C33.6875 25.2656 33.9609 25.3203 34.125 25.4844C34.2344 25.7031 34.1797 25.9766 34.0156 26.1406C32.7031 27.0703 31.3906 27.2344 30.1328 27.0156C28.875 26.7422 27.6719 26.0859 26.6328 25.3203C25.0469 24.2266 22.9141 24.2266 21.3828 25.3203H21.3281Z" fill="#c8a168"/>
</svg>
